<?xml version="1.0" encoding="UTF-8" standalone="no"?> <svg xmlns="http://www.w3.org/2000/svg" xmlns:xlink="http://www.w3.org/1999/xlink" xmlns:serif="http://www.serif.com/" width="100%" height="100%" viewBox="0 0 150 190" version="1.1" xml:space="preserve" style="fill-rule:evenodd;clip-rule:evenodd;"> <g transform="matrix(0.375197,0,0,0.376984,0,0)"> <path d="M133.17,294.4C165.62,294.4 191.67,272.8 191.67,246.1C191.67,219.4 168.93,207.51 150.54,196.1C167.4,186.15 185.8,177.17 185.8,155.33C185.8,135.91 168.17,122.32 142.88,122.32C114.52,122.32 93.32,139.31 93.32,162.61C93.32,178.14 103.54,190.52 123.47,202.9C104.57,215.52 83.87,226.2 83.87,251.44C83.87,276.68 104.05,294.4 133.18,294.4L133.17,294.4ZM142.88,191.98C128.32,182.27 114.78,174.75 114.78,153.88C114.78,139.8 125.77,129.85 140.84,129.85C155.91,129.85 167.15,140.04 167.15,155.58C167.15,173.3 155.4,182.52 142.88,191.98ZM135.98,286.63C117.08,286.63 103.53,271.83 103.53,251.44C103.53,231.05 115.28,217.95 131.38,207.03C147.73,217.95 170.21,229.36 170.21,252.66C170.21,272.32 155.9,286.64 135.98,286.64L135.98,286.63ZM256.15,294.64C292.68,294.64 315.93,256.05 315.93,204.6C315.93,153.15 294.47,122.32 260.49,122.32C223.7,122.32 200.45,160.91 200.45,213.09C200.45,265.27 222.17,294.64 256.14,294.64L256.15,294.64ZM261.01,286.87C233.67,286.87 224.99,231.05 224.99,194.4C224.99,157.75 231.38,130.08 254.37,130.08C282.47,130.08 291.41,185.42 291.41,221.09C291.41,254.58 285.53,286.86 261.01,286.86L261.01,286.87Z" style="fill:white;fill-rule:nonzero;"></path> </g> <g transform="matrix(0.375197,0,0,0.376984,0,0)"> <path d="M201.32,2.38C200.99,1.84 199.89,0 199.89,0C199.89,0 198.79,1.83 198.46,2.38C194.65,8.6 185.74,23.18 192.46,37.46C197.73,48.66 199.89,52.3 199.89,52.3C199.89,52.3 202.05,48.65 207.32,37.46C214.04,23.18 205.13,8.6 201.32,2.38Z" style="fill:rgb(255,130,0);fill-rule:nonzero;"></path> </g> <g transform="matrix(0.375197,0,0,0.376984,0,0)"> <path d="M220.7,40.53L220.7,30.63L206.07,51.96C204.73,53.97 202.19,57.08 202.19,67.11L202.19,92.61L213.87,76.78C221.76,67.21 220.58,55.89 220.7,52.66L220.7,46.86C229.35,53.25 234.96,63.51 234.96,75.09C234.96,94.46 219.26,110.16 199.89,110.16C180.52,110.16 164.82,94.46 164.82,75.09C164.82,63.51 170.43,53.24 179.08,46.86L179.08,52.66C179.2,55.89 178.03,67.21 185.91,76.78L197.59,92.61L197.59,67.11C197.59,57.08 195.05,53.97 193.71,51.96L179.08,30.63L179.08,40.53C167.38,47.59 159.55,60.43 159.55,75.09C159.55,97.37 177.61,115.43 199.89,115.43C222.17,115.43 240.23,97.37 240.23,75.09C240.23,60.43 232.4,47.59 220.7,40.53Z" style="fill:rgb(255,130,0);fill-rule:nonzero;"></path> </g> <g transform="matrix(0.375197,0,0,0.376984,0,0)"> <path d="M50.92,451.13C50.11,456.1 46.72,458.56 41.75,458.56C35.22,458.56 31.31,453.89 31.31,446.17L31.31,445.83C31.31,438.19 35.51,433.31 41.79,433.31C46.41,433.31 49.56,435.26 50.79,440.31L53.89,440.31L53.89,430.97L50.58,430.97L50.58,434.45C49.01,431.61 45.74,430.38 41.88,430.38C33.56,430.38 27.5,436.87 27.5,445.87L27.5,446.21C27.5,455.55 32.89,461.57 41.67,461.57C48.46,461.57 53.3,458.13 54.36,451.13L50.92,451.13Z" style="fill:white;fill-rule:nonzero;"></path> </g> <g transform="matrix(0.375197,0,0,0.376984,0,0)"> <path d="M78.33,458.43L78.33,439.12L71.71,439.12L71.71,441.88L74.81,441.88L74.81,452.41C74.81,456.49 71.88,458.52 68.87,458.52C65.48,458.52 63.82,456.82 63.82,452.89L63.82,439.12L57.2,439.12L57.2,441.88L60.3,441.88L60.3,452.79C60.3,459.2 63.52,461.57 67.94,461.57C71.38,461.57 73.8,459.49 74.82,457.45L74.82,461.18L81.44,461.18L81.44,458.42L78.34,458.42L78.33,458.43Z" style="fill:white;fill-rule:nonzero;"></path> </g> <g transform="matrix(0.375197,0,0,0.376984,0,0)"> <path d="M332.95,458.43L332.95,439.12L326.33,439.12L326.33,441.88L329.43,441.88L329.43,452.41C329.43,456.49 326.5,458.52 323.49,458.52C320.09,458.52 318.44,456.82 318.44,452.89L318.44,439.12L311.82,439.12L311.82,441.88L314.92,441.88L314.92,452.79C314.92,459.2 318.15,461.57 322.56,461.57C326,461.57 328.42,459.49 329.44,457.45L329.44,461.18L336.06,461.18L336.06,458.42L332.96,458.42L332.95,458.43Z" style="fill:white;fill-rule:nonzero;"></path> </g> <g transform="matrix(0.375197,0,0,0.376984,0,0)"> <path d="M90.87,458.43L90.87,428.22L84.12,428.22L84.12,430.97L87.3,430.97L87.3,458.43L84.21,458.43L84.21,461.19L93.97,461.19L93.97,458.43L90.87,458.43Z" style="fill:white;fill-rule:nonzero;"></path> </g> <g transform="matrix(0.375197,0,0,0.376984,0,0)"> <path d="M103.78,458.43L103.78,439.12L97.07,439.12L97.07,441.88L100.25,441.88L100.25,458.43L97.16,458.43L97.16,461.19L106.96,461.19L106.96,458.43L103.78,458.43Z" style="fill:white;fill-rule:nonzero;"></path> </g> <g transform="matrix(0.375197,0,0,0.376984,0,0)"> <path d="M101.82,429.62C100.5,429.62 99.4,430.64 99.4,432C99.4,433.36 100.5,434.42 101.82,434.42C103.14,434.42 104.24,433.36 104.24,432C104.24,430.64 103.14,429.62 101.82,429.62Z" style="fill:white;fill-rule:nonzero;"></path> </g> <g transform="matrix(0.375197,0,0,0.376984,0,0)"> <path d="M130.98,458.43L130.98,447.4C130.98,440.99 127.71,438.62 123.26,438.62C119.74,438.62 117.32,440.7 116.3,442.74L116.3,439.13L109.59,439.13L109.59,441.89L112.77,441.89L112.77,458.44L109.67,458.44L109.67,461.2L119.47,461.2L119.47,458.44L116.29,458.44L116.29,447.66C116.29,443.76 119.18,441.68 122.31,441.68C125.75,441.68 127.45,443.42 127.45,447.15L127.45,458.44L124.27,458.44L124.27,461.2L134.07,461.2L134.07,458.44L130.97,458.44L130.98,458.43Z" style="fill:white;fill-rule:nonzero;"></path> </g> <g transform="matrix(0.375197,0,0,0.376984,0,0)"> <path d="M153.62,458.43L153.62,446.55C153.62,440.14 149.76,438.62 145.6,438.62C141.44,438.62 137.45,440.27 136.99,445.54L140.51,445.54C140.85,442.65 142.42,441.55 145.43,441.55C148.65,441.55 150.1,442.82 150.1,446.56L150.1,448.17L147,448.17C141.36,448.17 136.05,449.83 136.05,455.04C136.05,459.58 139.19,461.19 143.26,461.19C146.48,461.19 148.61,460.47 150.09,458.13L150.09,461.19L156.58,461.19L156.58,458.43L153.61,458.43L153.62,458.43ZM150.1,453.42C150.1,456.81 147.21,458.77 143.61,458.77C140.6,458.77 139.58,457.07 139.58,455.04C139.58,451.81 142.76,450.67 147.13,450.67L150.1,450.67L150.1,453.43L150.1,453.42Z" style="fill:white;fill-rule:nonzero;"></path> </g> <g transform="matrix(0.375197,0,0,0.376984,0,0)"> <path d="M173.95,442.09L173.95,438.61C169.37,438.61 166.99,440.9 165.97,443.24L165.97,439.12L159.27,439.12L159.27,441.88L162.45,441.88L162.45,458.43L159.35,458.43L159.35,461.19L169.36,461.19L169.36,458.43L165.97,458.43L165.97,449.01C165.97,443.54 169.11,442.09 173.95,442.09Z" style="fill:white;fill-rule:nonzero;"></path> </g> <g transform="matrix(0.375197,0,0,0.376984,0,0)"> <path d="M220.53,433.73L220.53,430.97L209.2,430.97L209.2,433.73L213.02,433.73L213.02,458.43L209.2,458.43L209.2,461.19L220.53,461.19L220.53,458.43L216.71,458.43L216.71,433.73L220.53,433.73Z" style="fill:white;fill-rule:nonzero;"></path> </g> <g transform="matrix(0.375197,0,0,0.376984,0,0)"> <path d="M190.48,439.12L190.48,441.88L193.83,441.88L188.78,454.91L183.22,441.88L186.44,441.88L186.44,439.12L176.68,439.12L176.68,441.88L179.48,441.88L186.91,458.9C186.91,458.9 186.21,460.55 185.82,461.49C184.63,463.78 184.49,466.2 181.56,466.2C180.84,466.2 179.69,466.02 179.05,465.98L179.05,468.61C179.94,468.74 181.3,468.91 182.19,468.91C186.14,468.91 187.01,466.62 188.41,463.31L197.26,441.88L199.98,441.88L199.98,439.12L190.47,439.12L190.48,439.12Z" style="fill:white;fill-rule:nonzero;"></path> </g> <g transform="matrix(0.375197,0,0,0.376984,0,0)"> <path d="M245.02,458.44L245.02,447.4C245.02,440.99 241.75,438.62 237.3,438.62C233.78,438.62 231.36,440.7 230.34,442.74L230.34,439.13L223.64,439.13L223.64,441.89L226.82,441.89L226.82,458.44L223.72,458.44L223.72,461.2L233.52,461.2L233.52,458.44L230.34,458.44L230.34,447.66C230.34,443.76 233.23,441.68 236.37,441.68C239.81,441.68 241.5,443.42 241.5,447.15L241.5,458.44L238.32,458.44L238.32,461.2L248.12,461.2L248.12,458.44L245.02,458.44Z" style="fill:white;fill-rule:nonzero;"></path> </g> <g transform="matrix(0.375197,0,0,0.376984,0,0)"> <path d="M259.32,448.2C255.25,447.39 254.14,446.42 254.14,444.46C254.14,442.38 255.67,441.41 258.21,441.41C261.1,441.41 263,442.9 263.51,445.4L266.4,445.4L266.4,439.12L263.43,439.12L263.43,441.33C262.62,439.76 261.1,438.61 257.87,438.61C254.01,438.61 250.87,440.82 250.87,444.55C250.87,448.28 252.82,450.32 258.59,451.34C262.03,451.98 263.81,452.78 263.81,455.12C263.81,457.46 262.28,458.77 259.27,458.77C255.92,458.77 253.8,456.39 253.33,453.81L250.44,453.81L250.44,461.19L253.41,461.19L253.41,458.47C253.96,459.83 255.74,461.57 259.18,461.57C264.48,461.57 267.16,458.85 267.16,454.91C267.16,450.24 263.85,449.1 259.31,448.21L259.32,448.2Z" style="fill:white;fill-rule:nonzero;"></path> </g> <g transform="matrix(0.375197,0,0,0.376984,0,0)"> <path d="M279.69,458.51C277.48,458.51 276.51,457.45 276.51,455.29L276.51,441.88L282.24,441.88L282.24,439.12L276.51,439.12L276.51,433.73L272.99,433.73L272.99,439.12L269.81,439.12L269.81,441.88L272.99,441.88L272.99,455.63C272.99,459.15 274.94,461.48 279.4,461.48C280.72,461.48 281.61,461.27 282.58,460.97L282.58,458C281.56,458.34 280.59,458.51 279.69,458.51Z" style="fill:white;fill-rule:nonzero;"></path> </g> <g transform="matrix(0.375197,0,0,0.376984,0,0)"> <path d="M306.92,458.51C304.71,458.51 303.74,457.45 303.74,455.29L303.74,441.88L309.47,441.88L309.47,439.12L303.74,439.12L303.74,433.73L300.22,433.73L300.22,439.12L297.04,439.12L297.04,441.88L300.22,441.88L300.22,455.63C300.22,459.15 302.17,461.48 306.63,461.48C307.95,461.48 308.84,461.27 309.81,460.97L309.81,458C308.79,458.34 307.82,458.51 306.92,458.51Z" style="fill:white;fill-rule:nonzero;"></path> </g> <g transform="matrix(0.375197,0,0,0.376984,0,0)"> <path d="M347.05,458.51C344.84,458.51 343.87,457.45 343.87,455.29L343.87,441.88L349.6,441.88L349.6,439.12L343.87,439.12L343.87,433.73L340.35,433.73L340.35,439.12L337.17,439.12L337.17,441.88L340.35,441.88L340.35,455.63C340.35,459.15 342.3,461.48 346.76,461.48C348.08,461.48 348.97,461.27 349.94,460.97L349.94,458C348.92,458.34 347.95,458.51 347.05,458.51Z" style="fill:white;fill-rule:nonzero;"></path> </g> <g transform="matrix(0.375197,0,0,0.376984,0,0)"> <path d="M290.01,434.41C291.33,434.41 292.43,433.35 292.43,431.99C292.43,430.63 291.33,429.61 290.01,429.61C288.69,429.61 287.59,430.63 287.59,431.99C287.59,433.35 288.69,434.41 290.01,434.41Z" style="fill:white;fill-rule:nonzero;"></path> </g> <g transform="matrix(0.375197,0,0,0.376984,0,0)"> <path d="M291.96,458.43L291.96,439.12L285.26,439.12L285.26,441.88L288.44,441.88L288.44,458.43L285.34,458.43L285.34,461.19L295.14,461.19L295.14,458.43L291.96,458.43Z" style="fill:white;fill-rule:nonzero;"></path> </g> <g transform="matrix(0.375197,0,0,0.376984,0,0)"> <path d="M101.7,481.04C95.42,481.04 90.79,485.71 90.79,492.37L90.79,492.71C90.79,499.2 95.33,504 101.65,504C107.97,504 112.6,499.37 112.6,492.67L112.6,492.33C112.6,485.67 107.98,481.04 101.7,481.04ZM108.96,492.71C108.96,497.72 106.16,501.07 101.7,501.07C97.24,501.07 94.44,497.8 94.44,492.71L94.44,492.37C94.44,487.28 97.24,483.97 101.7,483.97C106.16,483.97 108.96,487.28 108.96,492.42L108.96,492.72L108.96,492.71Z" style="fill:white;fill-rule:nonzero;"></path> </g> <g transform="matrix(0.375197,0,0,0.376984,0,0)"> <path d="M124.69,473.62C125.67,473.62 126.56,473.79 127.19,474.09L127.19,471.12C126.3,470.82 125.7,470.7 124.56,470.7C120.15,470.7 117.94,473.29 117.94,477.83L117.94,481.56L114.76,481.56L114.76,484.32L117.94,484.32L117.94,500.87L114.84,500.87L114.84,503.63L125.45,503.63L125.45,500.87L121.46,500.87L121.46,484.32L126.89,484.32L126.89,481.56L121.46,481.56L121.46,477.49C121.46,475.16 122.35,473.63 124.68,473.63L124.69,473.62Z" style="fill:white;fill-rule:nonzero;"></path> </g> <g transform="matrix(0.375197,0,0,0.376984,0,0)"> <path d="M206.71,500.86L206.71,489.87C206.71,483.42 203.32,481.04 199.37,481.04C196.61,481.04 193.51,482.48 192.03,485.54C190.89,482.27 188.38,481.04 185.54,481.04C182.32,481.04 179.94,482.91 179.05,485.07L179.05,481.54L172.35,481.54L172.35,484.3L175.53,484.3L175.53,500.85L172.43,500.85L172.43,503.61L182.23,503.61L182.23,500.85L179.05,500.85L179.05,490.03C179.05,486.04 181.89,484.09 184.78,484.09C187.84,484.09 189.36,485.7 189.36,489.61L189.36,500.85L186.18,500.85L186.18,503.61L196.07,503.61L196.07,500.85L192.89,500.85L192.89,490.03C192.89,486.04 195.73,484.09 198.62,484.09C201.68,484.09 203.2,485.7 203.2,489.61L203.2,500.85L200.02,500.85L200.02,503.61L209.82,503.61L209.82,500.85L206.72,500.85L206.71,500.86Z" style="fill:white;fill-rule:nonzero;"></path> </g> <g transform="matrix(0.375197,0,0,0.376984,0,0)"> <path d="M166.62,500.86L156.1,473.28L151.18,473.28L140.49,500.86L137.56,500.86L137.56,503.62L147.32,503.62L147.32,500.86L143.97,500.86L146.87,493.22L160.08,493.22L162.98,500.86L159.67,500.86L159.67,503.62L169.6,503.62L169.6,500.86L166.62,500.86ZM147.96,490.38L153.38,476.33L153.55,476.33L158.97,490.38L147.96,490.38Z" style="fill:white;fill-rule:nonzero;"></path> </g> <g transform="matrix(0.375197,0,0,0.376984,0,0)"> <path d="M232.05,492.08C232.05,484.15 227.21,481.05 222.08,481.05C215.97,481.05 211.68,485.72 211.68,492.42L211.68,492.76C211.68,499.55 216.14,504 222.42,504C227.47,504 231.08,501.67 231.88,497.21L228.36,497.21C227.89,499.8 225.94,501.07 222.46,501.07C217.88,501.07 215.5,498.31 215.33,493.22L232.05,493.22L232.05,492.07L232.05,492.08ZM215.46,490.38C216.1,486.43 218.47,483.97 222.08,483.97C225.69,483.97 228.1,485.8 228.44,490.38L215.46,490.38Z" style="fill:white;fill-rule:nonzero;"></path> </g> <g transform="matrix(0.375197,0,0,0.376984,0,0)"> <path d="M281.79,495.64C281.45,499.25 278.57,501.07 275.43,501.07C271.14,501.07 268.17,498.23 268.17,492.75L268.17,492.41C268.17,487.19 271.27,483.96 275.3,483.96C279.08,483.96 281.07,485.91 281.88,488.93L284.89,488.93L284.89,481.54L281.79,481.54L281.79,484.3C280.9,482.48 279.03,481.03 275.3,481.03C269.36,481.03 264.52,485.61 264.52,492.4L264.52,492.74C264.52,499.66 269.19,503.98 275.38,503.98C280.68,503.98 284.59,500.42 285.05,495.62L281.78,495.62L281.79,495.64Z" style="fill:white;fill-rule:nonzero;"></path> </g> <g transform="matrix(0.375197,0,0,0.376984,0,0)"> <path d="M259.51,500.86L259.51,481.55L252.81,481.55L252.81,484.31L255.99,484.31L255.99,500.86L252.89,500.86L252.89,503.62L262.69,503.62L262.69,500.86L259.51,500.86Z" style="fill:white;fill-rule:nonzero;"></path> </g> <g transform="matrix(0.375197,0,0,0.376984,0,0)"> <path d="M257.56,472.05C256.24,472.05 255.14,473.07 255.14,474.43C255.14,475.79 256.24,476.85 257.56,476.85C258.88,476.85 259.98,475.79 259.98,474.43C259.98,473.07 258.88,472.05 257.56,472.05Z" style="fill:white;fill-rule:nonzero;"></path> </g> <g transform="matrix(0.375197,0,0,0.376984,0,0)"> <path d="M249.92,484.52L249.92,481.04C245.34,481.04 242.96,483.33 241.94,485.67L241.94,481.55L235.24,481.55L235.24,484.31L238.42,484.31L238.42,500.86L235.32,500.86L235.32,503.62L245.33,503.62L245.33,500.86L241.94,500.86L241.94,491.44C241.94,485.97 245.08,484.52 249.92,484.52Z" style="fill:white;fill-rule:nonzero;"></path> </g> <g transform="matrix(0.375197,0,0,0.376984,0,0)"> <path d="M306.02,500.86L306.02,488.98C306.02,482.57 302.16,481.04 298,481.04C293.84,481.04 289.85,482.69 289.39,487.96L292.91,487.96C293.25,485.07 294.82,483.97 297.83,483.97C301.06,483.97 302.5,485.24 302.5,488.98L302.5,490.59L299.4,490.59C293.76,490.59 288.45,492.24 288.45,497.46C288.45,502 291.59,503.61 295.66,503.61C298.88,503.61 301.01,502.89 302.49,500.55L302.49,503.61L308.98,503.61L308.98,500.85L306.01,500.85L306.02,500.86ZM302.5,495.85C302.5,499.24 299.61,501.2 296.01,501.2C293,501.2 291.98,499.5 291.98,497.47C291.98,494.24 295.16,493.1 299.53,493.1L302.5,493.1L302.5,495.86L302.5,495.85Z" style="fill:white;fill-rule:nonzero;"></path> </g> <g transform="matrix(0.375197,0,0,0.376984,0,0)"> <path d="M372.29,449.64C372.29,441.71 367.45,438.61 362.32,438.61C356.21,438.61 351.92,443.28 351.92,449.98L351.92,450.32C351.92,457.11 356.37,461.57 362.66,461.57C367.71,461.57 371.32,459.24 372.12,454.78L368.6,454.78C368.13,457.37 366.18,458.64 362.7,458.64C358.12,458.64 355.74,455.88 355.57,450.79L372.29,450.79L372.29,449.64ZM355.7,447.95C356.34,444 358.71,441.54 362.32,441.54C365.93,441.54 368.35,443.36 368.69,447.95L355.7,447.95Z" style="fill:white;fill-rule:nonzero;"></path> </g> <g transform="matrix(0.375197,0,0,0.376984,0,0)"> <path d="M103.05,373.02C114.84,380.1 127.58,385.86 141.1,390.07" style="fill:none;fill-rule:nonzero;stroke:rgb(154,192,176);stroke-width:3.66px;"></path> </g> <g transform="matrix(0.375197,0,0,0.376984,0,0)"> <path d="M113.16,64.89C113.32,64.53 113.89,63.33 113.89,63.33C113.89,63.33 112.56,63.4 112.17,63.42C107.64,63.62 97.03,64.09 92,72.52C88.06,79.13 86.93,81.51 86.93,81.51C86.93,81.51 89.56,81.36 97.16,80.18C106.86,78.68 111.27,69.02 113.15,64.89L113.16,64.89Z" style="fill:rgb(154,192,176);fill-rule:nonzero;"></path> </g> <g transform="matrix(0.375197,0,0,0.376984,0,0)"> <path d="M80.8,64.55C80.7,64.17 80.38,62.88 80.38,62.88C80.38,62.88 79.39,63.77 79.1,64.03C75.71,67.04 67.76,74.08 69.16,83.8C70.26,91.41 70.88,93.97 70.88,93.97C70.88,93.97 72.83,92.19 78,86.5C84.59,79.23 81.94,68.95 80.81,64.55L80.8,64.55Z" style="fill:rgb(154,192,176);fill-rule:nonzero;"></path> </g> <g transform="matrix(0.375197,0,0,0.376984,0,0)"> <path d="M103.24,89.93C103.52,89.65 104.48,88.73 104.48,88.73C104.48,88.73 103.22,88.32 102.84,88.2C98.54,86.77 88.46,83.4 80.75,89.47C74.7,94.23 72.8,96.05 72.8,96.05C72.8,96.05 75.31,96.85 82.83,98.47C92.42,100.54 100,93.11 103.24,89.93Z" style="fill:rgb(154,192,176);fill-rule:nonzero;"></path> </g> <g transform="matrix(0.375197,0,0,0.376984,0,0)"> <path d="M57.29,85.48C57.14,85.12 56.64,83.88 56.64,83.88C56.64,83.88 55.79,84.9 55.53,85.2C52.59,88.65 45.7,96.73 48.43,106.16C50.58,113.55 51.55,116 51.55,116C51.55,116 53.23,113.97 57.56,107.61C63.07,99.49 59.02,89.68 57.29,85.49L57.29,85.48Z" style="fill:rgb(154,192,176);fill-rule:nonzero;"></path> </g> <g transform="matrix(0.375197,0,0,0.376984,0,0)"> <path d="M83.05,107.49C83.29,107.18 84.11,106.13 84.11,106.13C84.11,106.13 82.8,105.9 82.41,105.83C77.95,105.01 67.51,103.08 60.71,110.16C55.39,115.71 53.75,117.78 53.75,117.78C53.75,117.78 56.35,118.22 64.02,118.78C73.81,119.5 80.28,111.08 83.04,107.48L83.05,107.49Z" style="fill:rgb(154,192,176);fill-rule:nonzero;"></path> </g> <g transform="matrix(0.375197,0,0,0.376984,0,0)"> <path d="M36.5,109.92C36.29,109.58 35.61,108.44 35.61,108.44C35.61,108.44 34.93,109.58 34.72,109.92C32.35,113.79 26.81,122.85 30.99,131.73C34.27,138.69 35.61,140.96 35.61,140.96C35.61,140.96 36.95,138.69 40.23,131.73C44.41,122.85 38.87,113.79 36.5,109.92Z" style="fill:rgb(154,192,176);fill-rule:nonzero;"></path> </g> <g transform="matrix(0.375197,0,0,0.376984,0,0)"> <path d="M65.38,127.62C65.57,127.27 66.22,126.11 66.22,126.11C66.22,126.11 64.89,126.09 64.5,126.08C59.97,125.96 49.35,125.7 43.75,133.75C39.36,140.07 38.07,142.36 38.07,142.36C38.07,142.36 40.7,142.39 48.37,141.75C58.15,140.93 63.22,131.6 65.39,127.61L65.38,127.62Z" style="fill:rgb(154,192,176);fill-rule:nonzero;"></path> </g> <g transform="matrix(0.375197,0,0,0.376984,0,0)"> <path d="M20.38,137.45C20.12,137.15 19.27,136.13 19.27,136.13C19.27,136.13 18.78,137.36 18.62,137.73C16.89,141.92 12.83,151.74 18.35,159.85C22.67,166.21 24.35,168.24 24.35,168.24C24.35,168.24 25.32,165.79 27.47,158.4C30.21,148.98 23.32,140.89 20.37,137.44L20.38,137.45Z" style="fill:rgb(154,192,176);fill-rule:nonzero;"></path> </g> <g transform="matrix(0.375197,0,0,0.376984,0,0)"> <path d="M51.68,150.41C51.81,150.04 52.27,148.79 52.27,148.79C52.27,148.79 50.95,148.98 50.56,149.03C46.06,149.63 35.54,151.02 31.26,159.86C27.91,166.78 27,169.26 27,169.26C27,169.26 29.61,168.88 37.08,167.04C46.61,164.7 50.16,154.69 51.68,150.42L51.68,150.41Z" style="fill:rgb(154,192,176);fill-rule:nonzero;"></path> </g> <g transform="matrix(0.375197,0,0,0.376984,0,0)"> <path d="M9.47,166.9C9.17,166.64 8.19,165.75 8.19,165.75C8.19,165.75 7.87,167.04 7.77,167.42C6.64,171.81 3.99,182.1 10.58,189.37C15.75,195.07 17.69,196.85 17.69,196.85C17.69,196.85 18.31,194.29 19.41,186.68C20.81,176.97 12.86,169.92 9.47,166.91L9.47,166.9Z" style="fill:rgb(154,192,176);fill-rule:nonzero;"></path> </g> <g transform="matrix(0.375197,0,0,0.376984,0,0)"> <path d="M42.27,175.38C42.35,174.99 42.63,173.69 42.63,173.69C42.63,173.69 41.35,174.06 40.97,174.17C36.6,175.39 26.37,178.23 23.37,187.58C21.02,194.9 20.45,197.48 20.45,197.48C20.45,197.48 22.98,196.74 30.12,193.88C39.23,190.23 41.36,179.83 42.27,175.39L42.27,175.38Z" style="fill:rgb(154,192,176);fill-rule:nonzero;"></path> </g> <g transform="matrix(0.375197,0,0,0.376984,0,0)"> <path d="M2.8,197.93C2.46,197.72 1.34,197.02 1.34,197.02C1.34,197.02 1.25,198.35 1.22,198.74C0.87,203.26 0.04,213.85 7.8,219.87C13.88,224.58 16.11,226 16.11,226C16.11,226 16.28,223.37 16.03,215.68C15.72,205.87 6.67,200.31 2.81,197.94L2.8,197.93Z" style="fill:rgb(154,192,176);fill-rule:nonzero;"></path> </g> <g transform="matrix(0.375197,0,0,0.376984,0,0)"> <path d="M36.58,200.59C36.59,200.2 36.64,198.87 36.64,198.87C36.64,198.87 35.45,199.45 35.09,199.63C31,201.58 21.42,206.16 20.08,215.89C19.04,223.51 18.93,226.15 18.93,226.15C18.93,226.15 21.29,224.98 27.83,220.93C36.17,215.76 36.46,205.14 36.58,200.61L36.58,200.59Z" style="fill:rgb(154,192,176);fill-rule:nonzero;"></path> </g> <g transform="matrix(0.375197,0,0,0.376984,0,0)"> <path d="M1.59,230.13C1.22,229.98 0,229.46 0,229.46C0,229.46 0.12,230.78 0.15,231.18C0.51,235.7 1.35,246.29 9.95,251.02C16.69,254.73 19.11,255.77 19.11,255.77C19.11,255.77 18.86,253.15 17.42,245.59C15.58,235.95 5.77,231.88 1.58,230.14L1.59,230.13Z" style="fill:rgb(154,192,176);fill-rule:nonzero;"></path> </g> <g transform="matrix(0.375197,0,0,0.376984,0,0)"> <path d="M35.36,227.47C35.31,227.08 35.15,225.76 35.15,225.76C35.15,225.76 34.06,226.52 33.74,226.75C30,229.32 21.26,235.34 21.46,245.16C21.62,252.85 21.93,255.47 21.93,255.47C21.93,255.47 24.08,253.94 29.9,248.92C37.33,242.51 35.95,231.98 35.36,227.48L35.36,227.47Z" style="fill:rgb(154,192,176);fill-rule:nonzero;"></path> </g> <g transform="matrix(0.375197,0,0,0.376984,0,0)"> <path d="M5.34,261.38C4.95,261.29 3.66,260.99 3.66,260.99C3.66,260.99 4.01,262.27 4.11,262.66C5.25,267.05 7.92,277.33 17.21,280.49C24.49,282.97 27.06,283.58 27.06,283.58C27.06,283.58 26.36,281.04 23.63,273.85C20.14,264.68 9.78,262.37 5.35,261.38L5.34,261.38Z" style="fill:rgb(154,192,176);fill-rule:nonzero;"></path> </g> <g transform="matrix(0.375197,0,0,0.376984,0,0)"> <path d="M38.14,252.9C38.02,252.52 37.64,251.25 37.64,251.25C37.64,251.25 36.7,252.19 36.42,252.47C33.19,255.65 25.62,263.1 27.52,272.73C29.01,280.28 29.77,282.8 29.77,282.8C29.77,282.8 31.62,280.93 36.48,274.96C42.68,267.35 39.5,257.22 38.14,252.9Z" style="fill:rgb(154,192,176);fill-rule:nonzero;"></path> </g> <g transform="matrix(0.375197,0,0,0.376984,0,0)"> <path d="M14.16,291.11C13.76,291.09 12.44,290.99 12.44,290.99C12.44,290.99 12.98,292.2 13.14,292.56C14.95,296.72 19.2,306.45 28.87,308.13C36.45,309.44 39.08,309.64 39.08,309.64C39.08,309.64 37.99,307.24 34.17,300.56C29.29,292.04 18.69,291.39 14.17,291.11L14.16,291.11Z" style="fill:rgb(154,192,176);fill-rule:nonzero;"></path> </g> <g transform="matrix(0.375197,0,0,0.376984,0,0)"> <path d="M45.23,277.6C45.05,277.25 44.47,276.05 44.47,276.05C44.47,276.05 43.69,277.13 43.46,277.44C40.77,281.09 34.45,289.63 37.84,298.84C40.5,306.06 41.64,308.43 41.64,308.43C41.64,308.43 43.18,306.29 47.04,299.64C51.98,291.16 47.25,281.65 45.22,277.59L45.23,277.6Z" style="fill:rgb(154,192,176);fill-rule:nonzero;"></path> </g> <g transform="matrix(0.375197,0,0,0.376984,0,0)"> <path d="M26.94,318.44C26.55,318.48 25.23,318.62 25.23,318.62C25.23,318.62 25.97,319.72 26.19,320.05C28.7,323.83 34.57,332.68 44.38,332.65C52.07,332.62 54.69,332.36 54.69,332.36C54.69,332.36 53.2,330.18 48.28,324.28C42,316.74 31.44,317.93 26.94,318.44Z" style="fill:rgb(154,192,176);fill-rule:nonzero;"></path> </g> <g transform="matrix(0.375197,0,0,0.376984,0,0)"> <path d="M55.2,299.74C54.96,299.42 54.19,298.35 54.19,298.35C54.19,298.35 53.61,299.55 53.44,299.9C51.42,303.96 46.69,313.47 51.62,321.95C55.49,328.6 57.02,330.74 57.02,330.74C57.02,330.74 58.16,328.37 60.82,321.15C64.21,311.94 57.9,303.4 55.2,299.75L55.2,299.74Z" style="fill:rgb(154,192,176);fill-rule:nonzero;"></path> </g> <g transform="matrix(0.375197,0,0,0.376984,0,0)"> <path d="M44.35,342.71C43.97,342.8 42.67,343.1 42.67,343.1C42.67,343.1 43.54,344.1 43.8,344.4C46.75,347.85 53.65,355.92 63.39,354.69C71.02,353.73 73.59,353.15 73.59,353.15C73.59,353.15 71.85,351.17 66.24,345.91C59.09,339.19 48.76,341.66 44.34,342.72L44.35,342.71Z" style="fill:rgb(154,192,176);fill-rule:nonzero;"></path> </g> <g transform="matrix(0.375197,0,0,0.376984,0,0)"> <path d="M70.12,320.7C69.85,320.41 68.94,319.44 68.94,319.44C68.94,319.44 68.51,320.7 68.38,321.07C66.87,325.35 63.33,335.36 69.27,343.18C73.92,349.31 75.71,351.25 75.71,351.25C75.71,351.25 76.55,348.75 78.31,341.26C80.55,331.7 73.25,324 70.13,320.7L70.12,320.7Z" style="fill:rgb(154,192,176);fill-rule:nonzero;"></path> </g> <g transform="matrix(0.375197,0,0,0.376984,0,0)"> <path d="M65.82,365.25C65.45,365.4 64.22,365.9 64.22,365.9C64.22,365.9 65.24,366.75 65.54,367.01C68.99,369.95 77.07,376.84 86.5,374.11C93.89,371.96 96.34,370.99 96.34,370.99C96.34,370.99 94.31,369.31 87.95,364.98C79.83,359.46 70.02,363.52 65.83,365.25L65.82,365.25Z" style="fill:rgb(154,192,176);fill-rule:nonzero;"></path> </g> <g transform="matrix(0.375197,0,0,0.376984,0,0)"> <path d="M87.82,339.49C87.51,339.25 86.46,338.43 86.46,338.43C86.46,338.43 86.23,339.74 86.16,340.13C85.34,344.59 83.41,355.03 90.49,361.83C96.04,367.15 98.11,368.79 98.11,368.79C98.11,368.79 98.55,366.19 99.12,358.52C99.84,348.73 91.42,342.26 87.82,339.5L87.82,339.49Z" style="fill:rgb(154,192,176);fill-rule:nonzero;"></path> </g> <g transform="matrix(0.375197,0,0,0.376984,0,0)"> <path d="M296.74,373.02C284.95,380.1 272.21,385.86 258.69,390.07" style="fill:none;fill-rule:nonzero;stroke:rgb(154,192,176);stroke-width:3.66px;"></path> </g> <g transform="matrix(0.375197,0,0,0.376984,0,0)"> <path d="M286.63,64.89C286.46,64.53 285.9,63.33 285.9,63.33C285.9,63.33 287.23,63.4 287.62,63.42C292.15,63.62 302.76,64.09 307.79,72.52C311.73,79.13 312.86,81.51 312.86,81.51C312.86,81.51 310.23,81.36 302.63,80.18C292.93,78.68 288.52,69.02 286.64,64.89L286.63,64.89Z" style="fill:rgb(154,192,176);fill-rule:nonzero;"></path> </g> <g transform="matrix(0.375197,0,0,0.376984,0,0)"> <path d="M319,64.55C319.1,64.17 319.42,62.88 319.42,62.88C319.42,62.88 320.41,63.77 320.7,64.03C324.09,67.04 332.04,74.08 330.64,83.8C329.54,91.41 328.92,93.97 328.92,93.97C328.92,93.97 326.97,92.19 321.81,86.5C315.22,79.23 317.87,68.95 319,64.55Z" style="fill:rgb(154,192,176);fill-rule:nonzero;"></path> </g> <g transform="matrix(0.375197,0,0,0.376984,0,0)"> <path d="M296.55,89.93C296.27,89.65 295.31,88.73 295.31,88.73C295.31,88.73 296.57,88.32 296.95,88.2C301.25,86.77 311.33,83.4 319.04,89.47C325.09,94.23 326.99,96.05 326.99,96.05C326.99,96.05 324.48,96.85 316.96,98.47C307.37,100.54 299.79,93.11 296.55,89.93Z" style="fill:rgb(154,192,176);fill-rule:nonzero;"></path> </g> <g transform="matrix(0.375197,0,0,0.376984,0,0)"> <path d="M342.5,85.48C342.65,85.12 343.15,83.88 343.15,83.88C343.15,83.88 344,84.9 344.26,85.2C347.2,88.65 354.09,96.73 351.36,106.16C349.21,113.55 348.24,116 348.24,116C348.24,116 346.56,113.97 342.24,107.61C336.72,99.49 340.78,89.68 342.51,85.49L342.5,85.48Z" style="fill:rgb(154,192,176);fill-rule:nonzero;"></path> </g> <g transform="matrix(0.375197,0,0,0.376984,0,0)"> <path d="M316.74,107.49C316.5,107.18 315.68,106.13 315.68,106.13C315.68,106.13 316.99,105.9 317.38,105.83C321.84,105.01 332.28,103.08 339.08,110.16C344.41,115.71 346.04,117.78 346.04,117.78C346.04,117.78 343.44,118.22 335.77,118.78C325.98,119.5 319.51,111.08 316.75,107.48L316.74,107.49Z" style="fill:rgb(154,192,176);fill-rule:nonzero;"></path> </g> <g transform="matrix(0.375197,0,0,0.376984,0,0)"> <path d="M363.29,109.92C363.5,109.58 364.18,108.44 364.18,108.44C364.18,108.44 364.86,109.58 365.07,109.92C367.44,113.79 372.98,122.85 368.8,131.73C365.52,138.69 364.18,140.96 364.18,140.96C364.18,140.96 362.84,138.69 359.56,131.73C355.38,122.85 360.92,113.79 363.29,109.92Z" style="fill:rgb(154,192,176);fill-rule:nonzero;"></path> </g> <g transform="matrix(0.375197,0,0,0.376984,0,0)"> <path d="M334.41,127.62C334.22,127.27 333.57,126.11 333.57,126.11C333.57,126.11 334.9,126.09 335.29,126.08C339.82,125.96 350.44,125.7 356.04,133.75C360.43,140.07 361.72,142.36 361.72,142.36C361.72,142.36 359.09,142.39 351.42,141.75C341.64,140.93 336.57,131.6 334.4,127.61L334.41,127.62Z" style="fill:rgb(154,192,176);fill-rule:nonzero;"></path> </g> <g transform="matrix(0.375197,0,0,0.376984,0,0)"> <path d="M379.42,137.45C379.68,137.15 380.53,136.13 380.53,136.13C380.53,136.13 381.02,137.36 381.18,137.73C382.91,141.92 386.97,151.74 381.45,159.85C377.13,166.21 375.44,168.24 375.44,168.24C375.44,168.24 374.47,165.79 372.32,158.4C369.58,148.98 376.47,140.89 379.42,137.44L379.42,137.45Z" style="fill:rgb(154,192,176);fill-rule:nonzero;"></path> </g> <g transform="matrix(0.375197,0,0,0.376984,0,0)"> <path d="M348.12,150.41C347.99,150.04 347.53,148.79 347.53,148.79C347.53,148.79 348.85,148.98 349.24,149.03C353.74,149.63 364.26,151.02 368.54,159.86C371.89,166.78 372.81,169.26 372.81,169.26C372.81,169.26 370.2,168.88 362.73,167.04C353.2,164.7 349.65,154.69 348.13,150.42L348.12,150.41Z" style="fill:rgb(154,192,176);fill-rule:nonzero;"></path> </g> <g transform="matrix(0.375197,0,0,0.376984,0,0)"> <path d="M390.32,166.9C390.62,166.64 391.6,165.75 391.6,165.75C391.6,165.75 391.92,167.04 392.02,167.42C393.15,171.81 395.8,182.1 389.21,189.37C384.04,195.07 382.09,196.85 382.09,196.85C382.09,196.85 381.47,194.29 380.37,186.68C378.97,176.97 386.92,169.92 390.31,166.91L390.32,166.9Z" style="fill:rgb(154,192,176);fill-rule:nonzero;"></path> </g> <g transform="matrix(0.375197,0,0,0.376984,0,0)"> <path d="M357.52,175.38C357.44,174.99 357.16,173.69 357.16,173.69C357.16,173.69 358.44,174.06 358.82,174.17C363.19,175.39 373.42,178.23 376.42,187.58C378.77,194.9 379.34,197.48 379.34,197.48C379.34,197.48 376.81,196.74 369.67,193.88C360.56,190.23 358.43,179.83 357.52,175.39L357.52,175.38Z" style="fill:rgb(154,192,176);fill-rule:nonzero;"></path> </g> <g transform="matrix(0.375197,0,0,0.376984,0,0)"> <path d="M396.99,197.93C397.33,197.72 398.45,197.02 398.45,197.02C398.45,197.02 398.54,198.35 398.57,198.74C398.92,203.26 399.75,213.85 391.99,219.87C385.91,224.58 383.69,226 383.69,226C383.69,226 383.52,223.37 383.76,215.68C384.07,205.87 393.12,200.31 396.98,197.94L396.99,197.93Z" style="fill:rgb(154,192,176);fill-rule:nonzero;"></path> </g> <g transform="matrix(0.375197,0,0,0.376984,0,0)"> <path d="M363.21,200.59C363.2,200.2 363.15,198.87 363.15,198.87C363.15,198.87 364.34,199.45 364.7,199.63C368.79,201.58 378.37,206.16 379.71,215.89C380.75,223.51 380.86,226.15 380.86,226.15C380.86,226.15 378.5,224.98 371.96,220.93C363.62,215.76 363.33,205.14 363.21,200.61L363.21,200.59Z" style="fill:rgb(154,192,176);fill-rule:nonzero;"></path> </g> <g transform="matrix(0.375197,0,0,0.376984,0,0)"> <path d="M398.2,230.13C398.57,229.98 399.79,229.46 399.79,229.46C399.79,229.46 399.67,230.78 399.64,231.18C399.28,235.7 398.44,246.29 389.84,251.02C383.1,254.73 380.68,255.77 380.68,255.77C380.68,255.77 380.93,253.15 382.37,245.59C384.21,235.95 394.02,231.88 398.21,230.14L398.2,230.13Z" style="fill:rgb(154,192,176);fill-rule:nonzero;"></path> </g> <g transform="matrix(0.375197,0,0,0.376984,0,0)"> <path d="M364.43,227.47C364.48,227.08 364.64,225.76 364.64,225.76C364.64,225.76 365.73,226.52 366.05,226.75C369.78,229.32 378.53,235.34 378.33,245.16C378.17,252.85 377.86,255.47 377.86,255.47C377.86,255.47 375.71,253.94 369.89,248.92C362.46,242.51 363.84,231.98 364.43,227.48L364.43,227.47Z" style="fill:rgb(154,192,176);fill-rule:nonzero;"></path> </g> <g transform="matrix(0.375197,0,0,0.376984,0,0)"> <path d="M394.45,261.38C394.84,261.29 396.13,260.99 396.13,260.99C396.13,260.99 395.78,262.27 395.68,262.66C394.54,267.05 391.87,277.33 382.58,280.49C375.3,282.97 372.73,283.58 372.73,283.58C372.73,283.58 373.43,281.04 376.16,273.85C379.65,264.68 390.01,262.37 394.44,261.38L394.45,261.38Z" style="fill:rgb(154,192,176);fill-rule:nonzero;"></path> </g> <g transform="matrix(0.375197,0,0,0.376984,0,0)"> <path d="M361.65,252.9C361.77,252.52 362.15,251.25 362.15,251.25C362.15,251.25 363.09,252.19 363.37,252.47C366.6,255.65 374.17,263.1 372.27,272.73C370.78,280.28 370.02,282.8 370.02,282.8C370.02,282.8 368.17,280.93 363.31,274.96C357.11,267.35 360.29,257.22 361.65,252.9Z" style="fill:rgb(154,192,176);fill-rule:nonzero;"></path> </g> <g transform="matrix(0.375197,0,0,0.376984,0,0)"> <path d="M385.63,291.11C386.03,291.09 387.35,290.99 387.35,290.99C387.35,290.99 386.81,292.2 386.65,292.56C384.84,296.72 380.6,306.45 370.92,308.13C363.34,309.44 360.71,309.64 360.71,309.64C360.71,309.64 361.8,307.24 365.62,300.56C370.5,292.04 381.1,291.39 385.62,291.11L385.63,291.11Z" style="fill:rgb(154,192,176);fill-rule:nonzero;"></path> </g> <g transform="matrix(0.375197,0,0,0.376984,0,0)"> <path d="M354.56,277.6C354.74,277.25 355.32,276.05 355.32,276.05C355.32,276.05 356.1,277.13 356.33,277.44C359.03,281.09 365.34,289.63 361.95,298.84C359.29,306.06 358.15,308.43 358.15,308.43C358.15,308.43 356.61,306.29 352.75,299.64C347.81,291.16 352.54,281.65 354.56,277.59L354.56,277.6Z" style="fill:rgb(154,192,176);fill-rule:nonzero;"></path> </g> <g transform="matrix(0.375197,0,0,0.376984,0,0)"> <path d="M372.85,318.44C373.24,318.48 374.56,318.62 374.56,318.62C374.56,318.62 373.82,319.72 373.6,320.05C371.09,323.83 365.22,332.68 355.41,332.65C347.72,332.62 345.1,332.36 345.1,332.36C345.1,332.36 346.59,330.18 351.51,324.28C357.79,316.74 368.34,317.93 372.85,318.44Z" style="fill:rgb(154,192,176);fill-rule:nonzero;"></path> </g> <g transform="matrix(0.375197,0,0,0.376984,0,0)"> <path d="M344.59,299.74C344.83,299.42 345.6,298.35 345.6,298.35C345.6,298.35 346.18,299.55 346.36,299.9C348.38,303.96 353.11,313.47 348.18,321.95C344.31,328.6 342.78,330.74 342.78,330.74C342.78,330.74 341.64,328.37 338.98,321.15C335.59,311.94 341.9,303.4 344.6,299.75L344.59,299.74Z" style="fill:rgb(154,192,176);fill-rule:nonzero;"></path> </g> <g transform="matrix(0.375197,0,0,0.376984,0,0)"> <path d="M355.44,342.71C355.82,342.8 357.12,343.1 357.12,343.1C357.12,343.1 356.25,344.1 355.99,344.4C353.04,347.85 346.14,355.92 336.4,354.69C328.77,353.73 326.2,353.15 326.2,353.15C326.2,353.15 327.94,351.17 333.55,345.91C340.71,339.19 351.03,341.66 355.45,342.72L355.44,342.71Z" style="fill:rgb(154,192,176);fill-rule:nonzero;"></path> </g> <g transform="matrix(0.375197,0,0,0.376984,0,0)"> <path d="M329.68,320.7C329.95,320.41 330.85,319.44 330.85,319.44C330.85,319.44 331.28,320.7 331.41,321.07C332.92,325.35 336.46,335.36 330.52,343.18C325.87,349.31 324.08,351.25 324.08,351.25C324.08,351.25 323.24,348.75 321.48,341.26C319.24,331.7 326.54,324 329.66,320.7L329.68,320.7Z" style="fill:rgb(154,192,176);fill-rule:nonzero;"></path> </g> <g transform="matrix(0.375197,0,0,0.376984,0,0)"> <path d="M333.98,365.25C334.34,365.4 335.58,365.9 335.58,365.9C335.58,365.9 334.56,366.75 334.26,367.01C330.81,369.95 322.73,376.84 313.3,374.11C305.91,371.96 303.46,370.99 303.46,370.99C303.46,370.99 305.49,369.31 311.85,364.98C319.97,359.46 329.78,363.52 333.97,365.25L333.98,365.25Z" style="fill:rgb(154,192,176);fill-rule:nonzero;"></path> </g> <g transform="matrix(0.375197,0,0,0.376984,0,0)"> <path d="M311.97,339.49C312.28,339.25 313.33,338.43 313.33,338.43C313.33,338.43 313.56,339.74 313.63,340.13C314.45,344.59 316.38,355.03 309.3,361.83C303.75,367.15 301.68,368.79 301.68,368.79C301.68,368.79 301.24,366.19 300.68,358.52C299.96,348.73 308.38,342.26 311.98,339.5L311.97,339.49Z" style="fill:rgb(154,192,176);fill-rule:nonzero;"></path> </g> <g transform="matrix(0.375197,0,0,0.376984,0,0)"> <path d="M149.27,372.56L149.27,363.33L156.5,363.33L156.5,360.08L149.27,360.08L149.27,354.28L159.26,354.28L159.26,350.88L145.61,350.88L145.61,372.55L149.27,372.55L149.27,372.56ZM170.14,372.91C175.73,372.91 178.51,369.54 178.51,364.62L178.51,350.89L174.91,350.89L174.91,364.36C174.91,367.7 173.47,369.6 170.17,369.6C166.87,369.6 165.4,367.64 165.4,364.33L165.4,350.89L161.74,350.89L161.74,364.65C161.74,369.57 164.17,372.91 170.15,372.91L170.14,372.91ZM191.33,372.56L191.33,354.29L198.01,354.29L198.01,350.89L181,350.89L181,354.29L187.68,354.29L187.68,372.56L191.34,372.56L191.33,372.56ZM208.88,372.91C214.47,372.91 217.26,369.54 217.26,364.62L217.26,350.89L213.66,350.89L213.66,364.36C213.66,367.7 212.23,369.6 208.92,369.6C205.61,369.6 204.15,367.64 204.15,364.33L204.15,350.89L200.49,350.89L200.49,364.65C200.49,369.57 202.92,372.91 208.89,372.91L208.88,372.91ZM225.03,354.23L229.02,354.23C232.12,354.23 233.73,354.99 233.73,357.48C233.73,359.97 232.09,360.82 229.04,360.82L225.03,360.82L225.03,354.23ZM225.04,372.56L225.04,364.01L228.85,364.01L233.71,372.56L237.63,372.56L232.53,363.54C235.55,362.81 237.33,360.85 237.33,357.39C237.33,352.97 234.34,350.89 229.19,350.89L221.43,350.89L221.43,372.56L225.04,372.56ZM255.5,372.56L255.5,369.22L244.58,369.22L244.58,362.92L252.16,362.92L252.16,359.67L244.58,359.67L244.58,354.28L254.92,354.28L254.92,350.88L240.92,350.88L240.92,372.55L255.5,372.55L255.5,372.56Z" style="fill:rgb(154,192,176);fill-rule:nonzero;"></path> </g> <g transform="matrix(0.375197,0,0,0.376984,0,0)"> <path d="M112.62,340.03C117.77,340.03 120.79,337.25 120.79,333.7C120.79,329.63 117.51,328.28 113.41,327.08C109.87,326.03 108.31,325.35 108.31,323.33C108.31,321.75 109.69,320.87 112.09,320.87C114.49,320.87 116.28,321.87 117.57,324.03L120.24,322.18C118.92,319.63 116.4,317.52 112.13,317.52C107.86,317.52 104.72,319.95 104.72,323.64C104.72,327.77 108.09,328.91 112.28,330.14C115.85,331.19 117.2,332.07 117.2,333.95C117.2,335.83 115.41,336.76 112.78,336.76C110.15,336.76 108.1,335.53 106.81,332.98L103.91,334.5C105.29,337.78 108.33,340.01 112.64,340.01L112.62,340.03ZM127.7,339.61L127.7,329.98L137.54,329.98L137.54,339.61L141.2,339.61L141.2,317.94L137.54,317.94L137.54,326.58L127.7,326.58L127.7,317.94L124.04,317.94L124.04,339.61L127.7,339.61ZM153.14,322.45L153.2,322.45L156.16,331.23L150.13,331.23L153.15,322.45L153.14,322.45ZM147.22,339.61L149.01,334.46L157.24,334.46L159,339.61L162.75,339.61L155.08,317.85L151.48,317.85L143.81,339.61L147.24,339.61L147.22,339.61ZM168.96,339.61L168.96,331.38L172.8,331.38C177.25,331.38 181.26,329.83 181.26,324.59C181.26,319.35 177.6,317.94 172.91,317.94L165.33,317.94L165.33,339.61L168.96,339.61ZM168.96,321.28L172.94,321.28C176.19,321.28 177.66,322.31 177.66,324.71C177.66,327.11 176.2,328.2 172.97,328.2L168.96,328.2L168.96,321.28ZM187.8,339.61L187.8,317.94L184.11,317.94L184.11,339.61L187.8,339.61ZM195.64,339.61L195.64,323.82L195.7,323.82L206.33,339.61L209.67,339.61L209.67,317.94L206.27,317.94L206.27,333.4L206.21,333.4L195.96,317.94L192.24,317.94L192.24,339.61L195.64,339.61ZM222.35,340.03C225.69,340.03 227.59,338.04 228.27,336.49L228.33,336.49L228.33,339.62L231.35,339.62L231.35,328.9L223.47,328.9L223.47,331.86L227.83,331.86C227.6,335.05 225.63,336.75 222.76,336.75C219.68,336.75 216.78,334.67 216.78,328.61C216.78,322.55 220.03,320.94 222.61,320.94C225.19,320.94 226.68,322.02 227.65,325.27L231.05,324.36C229.76,319.44 226.75,317.54 222.65,317.54C216.88,317.54 213.1,321.76 213.1,328.7C213.1,335.64 216.15,340.03 222.36,340.03L222.35,340.03ZM250.66,339.61L250.66,321.34L257.34,321.34L257.34,317.94L240.32,317.94L240.32,321.34L247,321.34L247,339.61L250.66,339.61ZM263.62,339.61L263.62,329.98L273.46,329.98L273.46,339.61L277.12,339.61L277.12,317.94L273.46,317.94L273.46,326.58L263.62,326.58L263.62,317.94L259.96,317.94L259.96,339.61L263.62,339.61ZM296.08,339.61L296.08,336.27L285.16,336.27L285.16,329.97L292.74,329.97L292.74,326.72L285.16,326.72L285.16,321.33L295.5,321.33L295.5,317.93L281.5,317.93L281.5,339.6L296.08,339.6L296.08,339.61Z" style="fill:rgb(154,192,176);fill-rule:nonzero;"></path> </g> </svg> 