<svg xmlns:xlink="http://www.w3.org/1999/xlink" width="265" height="73" viewBox="0 0 265 73" xmlns="http://www.w3.org/2000/svg">
    <g fill="none" fill-rule="evenodd">
        <path d="M26.806 1.517c-.208-.338-.89-1.482-.89-1.482s-.685 1.144-.892 1.482C22.65 5.4 17.09 14.49 21.281 23.4c3.286 6.984 4.634 9.26 4.634 9.26s1.348-2.276 4.634-9.26c4.191-8.91-1.368-18-3.743-21.882" fill="#FF8A04"></path>
        <path d="M38.895 25.317v-6.174l-9.126 13.3c-.836 1.255-2.42 3.195-2.42 9.45v15.905l7.284-9.871c4.918-5.97 4.183-13.032 4.261-15.046v-3.617c5.397 3.984 8.897 10.388 8.897 17.61 0 12.082-9.794 21.877-21.875 21.877-12.082 0-21.877-9.795-21.877-21.876 0-7.223 3.5-13.627 8.896-17.611l.002 3.617c.075 2.014-.659 9.076 4.26 15.046l7.284 9.87V41.895c0-6.256-1.584-8.196-2.42-9.45l-9.126-13.301v6.174C5.636 29.72.755 37.727.755 46.875c0 13.896 11.264 25.16 25.16 25.16 13.895 0 25.16-11.264 25.16-25.16 0-9.147-4.882-17.154-12.18-21.558" fill="#FF8A04"></path>
        <path d="M72.524 52.95c-3.631 0-6.305 2.699-6.305 6.55v.197c0 3.753 2.625 6.526 6.28 6.526 3.63 0 6.33-2.674 6.33-6.55v-.197c0-3.852-2.674-6.526-6.305-6.526Zm4.195 6.747c0 2.895-1.62 4.833-4.195 4.833-2.625 0-4.195-1.89-4.195-4.833V59.5c0-2.944 1.619-4.857 4.195-4.857 2.552 0 4.195 1.913 4.195 4.882v.172ZM85.815 48.657c.564 0 1.08.098 1.448.27v-1.718c-.516-.172-.859-.245-1.522-.245-2.55 0-3.827 1.496-3.827 4.122v2.156h-1.84v1.594h1.84v9.57h-1.79v1.596h6.132v-1.595H83.95v-9.571h3.14v-1.594h-3.14v-2.353c0-1.35.515-2.232 1.865-2.232M133.234 64.407v-6.355c0-3.728-1.963-5.103-4.245-5.103-1.594 0-3.385.835-4.244 2.602-.662-1.89-2.11-2.602-3.753-2.602-1.865 0-3.24 1.08-3.754 2.331v-2.039h-3.877v1.595h1.84v9.571h-1.791v1.594h5.668v-1.594h-1.84V58.15c0-2.306 1.643-3.434 3.312-3.434 1.767 0 2.649.932 2.649 3.19v6.501h-1.84v1.594h5.717v-1.594h-1.841V58.15c0-2.306 1.645-3.434 3.312-3.434 1.768 0 2.65.932 2.65 3.19v6.501h-1.84v1.594h5.668v-1.594h-1.791ZM110.054 64.407l-6.083-15.947h-2.846l-6.18 15.947H93.25v1.594h5.642v-1.594h-1.938l1.677-4.417h7.635l1.677 4.417h-1.913v1.594h5.74v-1.594h-1.717Zm-10.788-6.06 3.135-8.12h.098l3.134 8.12h-6.367ZM79.198 35.654c-.466 2.871-2.43 4.293-5.3 4.293-3.778 0-6.035-2.699-6.035-7.163v-.196c0-4.417 2.43-7.238 6.06-7.238 2.674 0 4.49 1.13 5.201 4.048h1.791v-5.397h-1.913v2.011c-.908-1.644-2.798-2.355-5.03-2.355-4.809 0-8.317 3.754-8.317 8.955v.196c0 5.398 3.116 8.881 8.194 8.881 3.925 0 6.723-1.987 7.336-6.035h-1.987ZM95.043 39.874V28.709h-3.827v1.594h1.79v6.088c0 2.355-1.692 3.532-3.435 3.532-1.962 0-2.919-.981-2.919-3.254v-7.96h-3.827v1.594h1.791v6.308c0 3.705 1.864 5.078 4.416 5.078 1.987 0 3.386-1.201 3.974-2.379v2.159h3.828v-1.595h-1.79ZM242.255 39.874V28.709h-3.828v1.594h1.792v6.088c0 2.355-1.693 3.532-3.435 3.532-1.963 0-2.92-.981-2.92-3.254v-7.96h-3.827v1.594h1.791v6.308c0 3.705 1.864 5.078 4.416 5.078 1.987 0 3.386-1.201 3.975-2.379v2.159h3.827v-1.595h-1.79ZM102.295 39.874V22.406h-3.901v1.595h1.84v15.873h-1.791v1.595h5.643v-1.595zM109.757 39.874V28.709h-3.876v1.594h1.84v9.571h-1.79v1.595h5.666v-1.595zM108.629 23.216c-.76 0-1.398.589-1.398 1.374a1.398 1.398 0 1 0 2.797 0c0-.785-.638-1.374-1.4-1.374M125.483 39.874v-6.378c0-3.705-1.889-5.079-4.465-5.079-2.036 0-3.435 1.202-4.023 2.38v-2.088h-3.877v1.594h1.84v9.571h-1.79v1.595h5.667v-1.595h-1.84v-6.231c0-2.258 1.668-3.459 3.483-3.459 1.987 0 2.97 1.005 2.97 3.164v6.526h-1.84v1.595h5.666v-1.595h-1.79ZM138.576 39.874v-6.869c0-3.705-2.233-4.588-4.637-4.588-2.453 0-4.711.957-4.98 3.999h2.036c.196-1.668 1.104-2.307 2.846-2.307 1.864 0 2.698.737 2.698 2.896v.932h-1.79c-3.263 0-6.33.957-6.33 3.975 0 2.625 1.815 3.557 4.17 3.557 1.865 0 3.092-.417 3.95-1.766v1.766h3.754v-1.595h-1.717Zm-2.037-2.895c0 1.963-1.668 3.091-3.753 3.091-1.742 0-2.331-.981-2.331-2.158 0-1.865 1.84-2.527 4.367-2.527h1.717v1.594ZM150.33 30.429v-2.012c-2.65 0-4.024 1.325-4.613 2.674v-2.382h-3.877v1.595h1.84v9.57h-1.79v1.596h5.79v-1.596h-1.963v-5.446c0-3.165 1.815-4 4.612-4M177.259 25.595v-1.594h-6.55v1.594h2.208v14.28h-2.208v1.594h6.55v-1.595h-2.208V25.595zM159.884 28.709v1.594h1.937l-2.918 7.535-3.214-7.535h1.864v-1.594h-5.642v1.594h1.62l4.292 9.841-.63 1.497c-.687 1.324-.77 2.723-2.463 2.723-.417 0-1.08-.103-1.449-.128v1.524c.515.074 1.302.174 1.817.174 2.282 0 2.786-1.325 3.596-3.238l5.115-12.393h1.571v-1.594h-5.496ZM191.42 39.874v-6.378c0-3.705-1.89-5.079-4.466-5.079-2.036 0-3.434 1.202-4.024 2.38v-2.088h-3.876v1.594h1.84v9.571h-1.79v1.595h5.667v-1.595h-1.84v-6.231c0-2.258 1.668-3.459 3.484-3.459 1.986 0 2.968 1.005 2.968 3.164v6.526h-1.84v1.595h5.667v-1.595h-1.79ZM199.69 33.962c-2.355-.466-2.993-1.031-2.993-2.16 0-1.201.882-1.766 2.355-1.766 1.669 0 2.772.859 3.067 2.306h1.668v-3.633h-1.718v1.278c-.465-.907-1.348-1.57-3.213-1.57-2.233 0-4.048 1.276-4.048 3.435 0 2.134 1.129 3.337 4.465 3.925 1.987.368 3.018.834 3.018 2.184 0 1.398-.885 2.109-2.626 2.109-1.938 0-3.164-1.374-3.434-2.87h-1.668v4.269h1.717v-1.57c.319.785 1.349 1.79 3.335 1.79 3.067 0 4.613-1.57 4.613-3.851 0-2.7-1.913-3.361-4.538-3.876M211.467 39.923c-1.276 0-1.84-.613-1.84-1.865v-7.755h3.312V28.71h-3.312v-3.114h-2.036v3.114h-1.84v1.594h1.84v7.952c0 2.036 1.128 3.385 3.704 3.385.761 0 1.276-.122 1.84-.295V39.63a5.324 5.324 0 0 1-1.668.294M227.206 39.923c-1.276 0-1.84-.613-1.84-1.865v-7.755h3.312V28.71h-3.312v-3.114h-2.036v3.114h-1.84v1.594h1.84v7.952c0 2.036 1.128 3.385 3.705 3.385.76 0 1.275-.122 1.84-.295V39.63a5.324 5.324 0 0 1-1.669.294M250.411 39.923c-1.275 0-1.84-.613-1.84-1.865v-7.755h3.312V28.71h-3.312v-3.114h-2.036v3.114h-1.84v1.594h1.84v7.952c0 2.036 1.128 3.385 3.705 3.385.76 0 1.275-.122 1.84-.295V39.63a5.32 5.32 0 0 1-1.669.294M147.888 59.328c0-4.587-2.796-6.378-5.765-6.378-3.533 0-6.011 2.698-6.011 6.574v.197c0 3.925 2.576 6.502 6.207 6.502 2.92 0 5.005-1.35 5.47-3.926h-2.035c-.27 1.496-1.4 2.232-3.411 2.232-2.65 0-4.023-1.594-4.121-4.538h9.666v-.663Zm-9.592-.98c.367-2.283 1.74-3.706 3.827-3.706 2.134 0 3.484 1.055 3.68 3.705h-7.507ZM217.431 25.988c.761 0 1.4-.613 1.4-1.399 0-.785-.639-1.373-1.4-1.373-.76 0-1.398.588-1.398 1.373 0 .786.638 1.4 1.398 1.4M218.56 39.874V28.709h-3.876v1.594h1.84v9.571h-1.79v1.595h5.666v-1.595zM176.644 61.39c-.196 2.084-1.863 3.14-3.68 3.14-2.477 0-4.195-1.644-4.195-4.809v-.196c0-3.018 1.792-4.883 4.123-4.883 2.183 0 3.336 1.13 3.802 2.871h1.742v-4.27h-1.792v1.596c-.514-1.055-1.595-1.889-3.752-1.889-3.435 0-6.232 2.65-6.232 6.575v.196c0 4 2.698 6.501 6.28 6.501 3.067 0 5.323-2.06 5.594-4.833h-1.89ZM163.762 64.407V53.241h-3.876v1.595h1.84v9.571h-1.79v1.594h5.666v-1.594zM162.634 47.748c-.761 0-1.398.59-1.398 1.375s.637 1.398 1.398 1.398c.76 0 1.398-.614 1.398-1.398 0-.785-.638-1.374-1.398-1.374M190.655 64.407v-6.87c0-3.705-2.233-4.588-4.637-4.588-2.453 0-4.71.957-4.98 4h2.036c.196-1.669 1.104-2.307 2.846-2.307 1.864 0 2.698.737 2.698 2.895v.933h-1.79c-3.263 0-6.33.957-6.33 3.974 0 2.625 1.815 3.557 4.171 3.557 1.864 0 3.09-.417 3.95-1.766v1.766h3.753v-1.594h-1.717Zm-2.037-2.896c0 1.963-1.668 3.092-3.754 3.092-1.74 0-2.33-.98-2.33-2.159 0-1.865 1.84-2.527 4.367-2.527h1.717v1.594ZM158.218 54.961V52.95c-2.65 0-4.024 1.325-4.612 2.675v-2.383h-3.877v1.595h1.841v9.571h-1.792v1.594h5.79v-1.594h-1.962V58.96c0-3.165 1.816-3.999 4.612-3.999M265.006 34.795c0-4.587-2.796-6.378-5.765-6.378-3.533 0-6.011 2.698-6.011 6.574v.197c0 3.925 2.576 6.501 6.207 6.501 2.92 0 5.005-1.349 5.47-3.925h-2.035c-.27 1.496-1.4 2.232-3.411 2.232-2.65 0-4.023-1.594-4.121-4.538h9.666v-.663Zm-9.592-.98c.367-2.283 1.74-3.706 3.827-3.706 2.134 0 3.484 1.056 3.68 3.705h-7.507Z" fill="#006748"></path>
    </g>
</svg>